{"glyphs":{":":{"x_min":0,"x_max":337,"ha":337,"o":"m 153 517 l 256 517 l 232 393 l 129 393 z m 76 124 l 179 124 l 155 0 l 52 0 z"},"$":{"x_min":0,"x_max":636,"ha":636,"o":"m 293 71 q 361 74 400 105 q 440 137 440 187 q 440 228 415 250 q 390 273 334 282 z m 342 576 q 277 569 241 538 q 204 507 204 458 q 204 424 227 405 q 250 385 303 376 z m 570 616 l 553 528 q 511 550 470 562 q 430 575 391 576 l 350 367 q 440 353 487 311 q 534 269 534 203 q 534 118 464 62 q 395 6 279 0 l 250 -147 l 201 -147 l 230 0 q 173 1 124 13 q 74 24 33 45 l 50 135 q 95 104 144 88 q 192 71 244 69 l 287 292 q 195 310 153 346 q 111 382 111 444 q 111 525 178 581 q 245 637 355 646 l 378 760 l 427 760 l 405 646 q 449 645 491 637 q 533 629 570 616 z"},"?":{"x_min":0,"x_max":531,"ha":531,"o":"m 249 124 l 225 0 l 126 0 l 150 124 z m 141 687 q 191 715 240 729 q 290 742 342 742 q 420 742 466 706 q 511 669 511 606 q 511 556 485 512 q 459 468 400 420 l 349 379 q 308 347 294 324 q 281 301 272 256 l 260 196 l 167 196 l 182 271 q 191 317 210 349 q 229 381 283 426 l 335 469 q 376 503 393 529 q 409 555 409 583 q 409 620 383 641 q 356 662 309 662 q 270 662 222 645 q 174 627 123 595 z"},"<":{"x_min":0,"x_max":838,"ha":838,"o":"m 732 492 l 228 313 l 732 135 l 732 46 l 106 273 l 106 354 l 732 581 z"},"'":{"x_min":0,"x_max":275,"ha":275,"o":"m 179 729 l 179 458 l 96 458 l 96 729 z"},"=":{"x_min":0,"x_max":838,"ha":838,"o":"m 106 454 l 732 454 l 732 372 l 106 372 z m 106 255 l 732 255 l 732 172 l 106 172 z"},"a":{"x_min":0,"x_max":613,"ha":613,"o":"m 537 312 l 476 0 l 386 0 l 403 83 q 363 34 313 10 q 262 -14 200 -14 q 130 -14 86 29 q 41 71 41 138 q 41 234 117 290 q 194 345 328 345 l 453 345 l 458 369 q 459 373 459 378 q 460 382 460 392 q 460 436 425 460 q 389 484 325 484 q 281 484 235 473 q 189 461 140 439 l 156 522 q 207 541 255 551 q 304 560 349 560 q 446 560 496 518 q 547 476 547 396 q 547 380 544 358 q 542 336 537 312 z m 440 275 l 350 275 q 240 275 187 245 q 134 216 134 154 q 134 111 161 86 q 188 62 236 62 q 309 62 364 115 q 418 167 436 255 z"},"L":{"x_min":0,"x_max":557,"ha":557,"o":"m 168 729 l 267 729 l 142 82 l 497 82 l 481 0 l 27 0 z"},"3":{"x_min":0,"x_max":636,"ha":636,"o":"m 158 711 q 212 727 262 734 q 313 742 362 742 q 458 742 515 699 q 572 656 572 584 q 572 513 527 462 q 482 412 404 393 q 465 375 494 338 q 523 301 523 240 q 523 182 495 130 q 467 79 414 42 q 374 14 318 0 q 263 -14 190 -14 q 144 -14 97 -5 q 50 4 2 22 l 20 115 q 66 90 113 77 q 159 65 208 65 q 304 65 364 115 q 424 164 424 243 q 424 294 386 322 q 348 349 277 349 l 192 349 l 207 429 l 297 429 q 378 429 425 466 q 471 503 471 567 q 471 613 437 638 q 403 663 341 663 q 294 663 245 653 q 196 643 143 623 z"},";":{"x_min":0,"x_max":337,"ha":337,"o":"m 88 124 l 191 124 l 174 40 l 64 -116 l 1 -116 l 71 40 z m 164 517 l 267 517 l 243 393 l 140 393 z"},"J":{"x_min":0,"x_max":295,"ha":295,"o":"m 167 729 l 266 729 l 134 51 q 108 -82 47 -141 q -15 -200 -125 -200 l -164 -200 l -148 -117 l -117 -117 q -51 -117 -17 -80 q 17 -42 35 51 z"},"V":{"x_min":0,"x_max":684,"ha":684,"o":"m 206 0 l 78 729 l 175 729 l 281 102 l 635 729 l 742 729 l 321 0 z"},"\"":{"x_min":0,"x_max":460,"ha":460,"o":"m 179 729 l 179 458 l 96 458 l 96 729 z m 364 729 l 364 458 l 281 458 l 281 729 z"},"7":{"x_min":0,"x_max":636,"ha":636,"o":"m 128 729 l 627 729 l 618 687 l 201 0 l 93 0 l 487 646 l 112 646 z"},"S":{"x_min":0,"x_max":635,"ha":635,"o":"m 603 705 l 584 609 q 535 635 486 649 q 438 662 392 662 q 304 662 251 624 q 199 585 199 521 q 199 486 219 467 q 238 448 318 427 l 377 412 q 477 386 516 346 q 555 307 555 235 q 555 125 469 55 q 382 -14 240 -14 q 182 -14 124 -3 q 65 9 6 32 l 26 134 q 80 100 135 83 q 189 66 243 66 q 335 66 391 107 q 447 148 447 214 q 447 258 425 281 q 402 303 329 322 l 270 337 q 169 363 132 398 q 95 432 95 494 q 95 603 179 673 q 263 742 397 742 q 449 742 500 733 q 552 724 603 705 z"},"}":{"x_min":0,"x_max":636,"ha":636,"o":"m 7 -163 l 21 -93 l 59 -93 q 125 -93 148 -73 q 171 -54 186 19 l 211 142 q 227 220 256 256 q 286 291 340 301 q 304 310 285 335 q 265 360 265 397 q 265 409 267 425 q 269 440 272 459 l 295 578 q 298 594 299 606 q 300 619 300 631 q 300 662 279 676 q 258 690 211 690 l 173 690 l 186 760 l 222 760 q 313 760 353 733 q 393 707 393 647 q 393 632 391 615 q 390 599 386 580 l 364 465 q 364 463 363 459 q 358 435 358 413 q 358 371 382 353 q 406 335 461 335 l 491 335 l 477 263 l 447 263 q 376 263 346 236 q 315 209 301 136 l 275 17 q 262 -44 245 -79 q 228 -113 202 -132 q 179 -148 146 -156 q 112 -163 47 -163 z"},"Z":{"x_min":0,"x_max":685,"ha":685,"o":"m 131 729 l 703 729 l 689 654 l 124 83 l 589 83 l 573 0 l -22 0 l -8 75 l 557 646 l 115 646 z"},"x":{"x_min":0,"x_max":592,"ha":592,"o":"m 600 547 l 349 279 l 503 0 l 400 0 l 284 217 l 83 0 l -26 0 l 243 288 l 100 547 l 203 547 l 308 349 l 491 547 z"},")":{"x_min":0,"x_max":390,"ha":390,"o":"m -62 -132 q 68 30 131 175 q 195 320 195 455 q 195 532 177 608 q 158 684 121 759 l 199 759 q 244 674 266 596 q 288 517 288 441 q 288 295 220 152 q 153 9 18 -132 z"},"&":{"x_min":0,"x_max":780,"ha":780,"o":"m 472 127 l 264 392 q 205 349 175 301 q 144 252 144 202 q 144 140 186 103 q 228 65 297 65 q 343 65 387 81 q 432 97 472 127 z m 736 391 q 714 313 678 249 q 642 185 592 132 l 694 0 l 571 0 l 519 68 q 467 27 408 7 q 348 -14 283 -14 q 175 -14 111 39 q 47 92 47 180 q 47 255 92 322 q 137 389 226 446 q 211 468 204 491 q 197 515 197 541 q 197 574 208 604 q 219 634 240 658 q 274 698 325 720 q 375 742 434 742 q 472 742 511 733 q 549 725 589 707 l 572 618 q 535 641 499 653 q 462 665 428 665 q 368 665 330 634 q 292 602 292 553 q 292 532 301 511 q 311 490 344 447 l 543 193 q 580 231 605 281 q 631 332 645 391 z"},"_":{"x_min":0,"x_max":500,"ha":500,"o":"m 510 -166 l 510 -236 l -10 -236 l -10 -166 z"},"v":{"x_min":0,"x_max":592,"ha":592,"o":"m 72 547 l 167 547 l 247 82 l 509 547 l 604 547 l 293 0 l 172 0 z"},"O":{"x_min":0,"x_max":787,"ha":787,"o":"m 456 662 q 375 662 313 623 q 251 583 205 503 q 176 452 160 394 q 145 336 145 278 q 145 176 194 121 q 242 66 331 66 q 411 66 474 106 q 537 146 581 224 q 611 277 626 335 q 642 393 642 450 q 642 551 593 607 q 544 662 456 662 z m 328 -14 q 194 -14 117 65 q 40 145 40 283 q 40 362 70 445 q 100 527 153 592 q 215 667 291 705 q 367 742 459 742 q 593 742 670 663 q 747 584 747 448 q 747 364 718 283 q 688 202 634 136 q 571 60 496 23 q 420 -14 328 -14 z"},"(":{"x_min":0,"x_max":390,"ha":390,"o":"m 427 759 q 297 597 234 452 q 170 307 170 172 q 170 95 188 19 q 207 -57 244 -132 l 166 -132 q 121 -48 99 31 q 77 111 77 187 q 77 332 144 474 q 211 617 347 759 z"},"C":{"x_min":0,"x_max":698,"ha":698,"o":"m 695 673 l 675 569 q 628 616 575 639 q 523 662 462 662 q 378 662 315 622 q 252 582 206 500 q 177 447 161 388 q 146 330 146 270 q 146 170 198 118 q 249 66 347 66 q 415 66 478 88 q 540 109 599 153 l 576 36 q 518 11 459 -1 q 399 -14 340 -14 q 200 -14 121 62 q 42 138 42 274 q 42 361 72 445 q 102 529 158 598 q 218 672 294 707 q 371 742 472 742 q 535 742 591 725 q 646 708 695 673 z"},"W":{"x_min":0,"x_max":989,"ha":989,"o":"m 96 729 l 192 729 l 227 109 l 502 729 l 612 729 l 648 109 l 920 729 l 1020 729 l 696 0 l 572 0 l 538 608 l 265 0 l 141 0 z"},"A":{"x_min":0,"x_max":684,"ha":684,"o":"m 368 729 l 480 729 l 615 0 l 512 0 l 482 187 l 154 187 l 51 0 l -53 0 z m 404 632 l 199 269 l 467 269 z"},"f":{"x_min":0,"x_max":352,"ha":352,"o":"m 478 760 l 464 685 l 378 685 q 329 685 307 666 q 285 646 274 595 l 264 547 l 412 547 l 399 477 l 251 477 l 158 0 l 68 0 l 161 477 l 75 477 l 88 547 l 174 547 l 181 585 q 200 682 246 721 q 293 760 393 760 z"},"Q":{"x_min":0,"x_max":787,"ha":787,"o":"m 361 -13 q 355 -14 350 -14 q 344 -14 332 -14 q 195 -14 118 64 q 41 143 41 281 q 41 362 71 444 q 100 526 153 592 q 214 667 290 705 q 367 742 459 742 q 593 742 670 663 q 747 584 747 448 q 747 301 667 179 q 586 57 456 7 l 555 -129 l 445 -129 z m 456 662 q 375 662 313 623 q 251 583 205 503 q 176 452 160 394 q 145 336 145 278 q 145 176 194 121 q 242 66 331 66 q 411 66 474 106 q 537 146 581 224 q 611 277 626 335 q 642 393 642 450 q 642 551 593 607 q 544 662 456 662 z"},"w":{"x_min":0,"x_max":818,"ha":818,"o":"m 85 547 l 174 547 l 197 107 l 401 547 l 505 547 l 535 107 l 729 547 l 819 547 l 569 0 l 464 0 l 437 453 l 228 0 l 122 0 z"},"-":{"x_min":0,"x_max":361,"ha":361,"o":"m 61 314 l 324 314 l 309 234 l 45 234 z"},"E":{"x_min":0,"x_max":632,"ha":632,"o":"m 169 729 l 630 729 l 614 646 l 251 646 l 209 430 l 557 430 l 541 347 l 193 347 l 142 83 l 513 83 l 497 0 l 27 0 z"},"s":{"x_min":0,"x_max":521,"ha":521,"o":"m 500 531 l 483 446 q 447 465 408 475 q 368 485 326 485 q 255 485 215 461 q 174 437 174 395 q 174 347 269 321 q 276 319 279 318 l 308 309 q 398 284 428 257 q 458 229 458 182 q 458 95 389 41 q 320 -14 208 -14 q 165 -14 117 -6 q 69 2 11 20 l 29 113 q 78 87 126 74 q 174 61 218 61 q 284 61 325 89 q 366 118 366 161 q 366 208 258 237 l 249 239 l 218 247 q 149 265 118 295 q 86 324 86 370 q 86 458 152 509 q 217 560 330 560 q 375 560 417 553 q 459 545 500 531 z"},">":{"x_min":0,"x_max":838,"ha":838,"o":"m 106 492 l 106 581 l 732 354 l 732 273 l 106 46 l 106 135 l 609 313 z"},"l":{"x_min":0,"x_max":278,"ha":278,"o":"m 183 760 l 273 760 l 125 0 l 35 0 z"},"8":{"x_min":0,"x_max":636,"ha":636,"o":"m 445 221 q 445 276 406 311 q 368 346 305 346 q 229 346 179 301 q 130 255 130 185 q 130 129 168 97 q 206 64 270 64 q 347 64 396 108 q 445 153 445 221 z m 495 561 q 495 607 461 636 q 427 664 370 664 q 303 664 260 626 q 217 589 217 532 q 217 483 251 454 q 285 424 341 424 q 408 424 452 463 q 495 501 495 561 z m 428 384 q 483 363 513 320 q 542 278 542 218 q 542 117 464 51 q 386 -14 262 -14 q 157 -14 95 37 q 33 89 33 175 q 33 253 86 314 q 140 375 225 391 q 174 409 147 446 q 120 482 120 535 q 120 624 194 683 q 267 742 380 742 q 474 742 533 694 q 593 646 593 572 q 593 507 549 457 q 504 406 428 384 z"},"\\":{"x_min":0,"x_max":337,"ha":337,"o":"m 168 729 l 262 -93 l 180 -93 l 85 729 z"},"e":{"x_min":0,"x_max":615,"ha":615,"o":"m 481 322 q 482 330 483 338 q 484 347 484 355 q 484 415 449 449 q 414 484 354 484 q 287 484 236 442 q 185 399 158 322 z m 559 252 l 141 252 q 138 233 137 223 q 136 212 136 204 q 136 136 178 99 q 220 62 296 62 q 354 62 407 75 q 459 88 504 114 l 487 25 q 438 5 387 -4 q 335 -14 282 -14 q 168 -14 107 40 q 46 95 46 195 q 46 280 76 354 q 107 427 166 485 q 204 521 257 541 q 309 560 368 560 q 461 560 516 504 q 571 449 571 355 q 571 333 568 307 q 565 281 559 252 z"},"b":{"x_min":0,"x_max":635,"ha":635,"o":"m 495 334 q 495 405 463 445 q 430 485 373 485 q 332 485 295 465 q 259 444 232 406 q 204 365 187 312 q 171 258 171 205 q 171 138 203 99 q 235 61 291 61 q 333 61 370 81 q 406 101 433 139 q 461 179 478 232 q 495 286 495 334 z m 216 464 q 249 509 299 534 q 349 560 404 560 q 488 560 537 503 q 587 447 587 350 q 587 271 558 197 q 529 123 475 65 q 440 27 394 6 q 348 -14 298 -14 q 245 -14 206 10 q 167 35 142 83 l 126 0 l 36 0 l 184 760 l 274 760 z"},"%":{"x_min":0,"x_max":950,"ha":950,"o":"m 235 345 q 168 345 130 388 q 91 432 91 506 q 91 611 147 677 q 204 742 295 742 q 361 742 400 698 q 439 655 439 580 q 439 476 382 410 q 326 345 235 345 z m 361 577 q 361 628 342 654 q 323 680 285 680 q 230 680 200 633 q 169 585 169 501 q 169 456 189 432 q 208 407 245 407 q 297 407 329 454 q 361 500 361 577 z m 781 218 q 781 270 762 296 q 744 322 706 322 q 652 322 621 274 q 590 227 590 142 q 590 97 610 72 q 629 48 666 48 q 718 48 750 94 q 781 141 781 218 z m 656 -14 q 589 -14 551 29 q 512 73 512 147 q 512 252 569 318 q 625 383 716 383 q 782 383 821 340 q 859 297 859 222 q 859 117 802 52 q 746 -14 656 -14 z m 822 742 l 219 -14 l 141 -14 l 744 742 z"},"m":{"x_min":0,"x_max":974,"ha":974,"o":"m 898 330 l 834 0 l 744 0 l 807 327 q 811 348 813 363 q 815 378 815 389 q 815 433 791 458 q 766 482 722 482 q 657 482 605 433 q 554 384 539 305 l 479 0 l 389 0 l 453 327 q 457 345 459 361 q 461 376 461 388 q 461 433 437 457 q 412 482 369 482 q 303 482 251 433 q 200 384 185 305 l 125 0 l 35 0 l 142 547 l 232 547 l 215 462 q 251 510 301 535 q 350 560 406 560 q 465 560 504 529 q 542 498 550 442 q 591 500 645 530 q 699 560 759 560 q 829 560 867 520 q 906 479 906 405 q 906 389 904 369 q 902 350 898 330 z"},"#":{"x_min":0,"x_max":838,"ha":838,"o":"m 438 718 l 387 515 l 530 515 l 581 718 l 659 718 l 609 515 l 773 515 l 754 440 l 590 440 l 550 277 l 716 277 l 698 202 l 531 202 l 480 0 l 402 0 l 452 202 l 309 202 l 259 0 l 180 0 l 231 202 l 70 202 l 88 277 l 249 277 l 290 440 l 126 440 l 145 515 l 309 515 l 359 718 z m 511 440 l 369 440 l 328 277 l 471 277 z"},",":{"x_min":0,"x_max":318,"ha":318,"o":"m 90 124 l 193 124 l 177 40 l 66 -116 l 3 -116 l 73 40 z"},"n":{"x_min":0,"x_max":634,"ha":634,"o":"m 557 330 l 493 0 l 403 0 l 467 327 q 471 350 474 367 q 476 385 476 395 q 476 436 450 459 q 424 482 378 482 q 306 482 253 434 q 201 386 185 303 l 125 0 l 35 0 l 141 547 l 231 547 l 213 461 q 250 508 303 534 q 356 560 414 560 q 486 560 526 521 q 566 482 566 411 q 566 394 564 374 q 562 354 557 330 z"},"h":{"x_min":0,"x_max":634,"ha":634,"o":"m 557 330 l 493 0 l 403 0 l 467 327 q 471 350 474 367 q 476 385 476 395 q 476 436 450 459 q 424 482 378 482 q 306 482 253 433 q 200 384 184 303 l 125 0 l 35 0 l 183 760 l 273 760 l 215 461 q 249 507 302 533 q 355 560 414 560 q 486 560 526 521 q 566 482 566 411 q 566 394 564 374 q 562 354 557 330 z"},"z":{"x_min":0,"x_max":525,"ha":525,"o":"m 116 547 l 543 547 l 527 465 l 115 72 l 455 72 l 441 0 l -3 0 l 13 82 l 425 475 l 102 475 z"},"B":{"x_min":0,"x_max":686,"ha":686,"o":"m 169 729 l 421 729 q 523 729 574 691 q 625 653 625 576 q 625 506 581 455 q 538 404 467 393 q 527 379 558 341 q 588 302 588 238 q 588 128 507 64 q 425 0 284 0 l 27 0 z m 193 348 l 141 81 l 300 81 q 389 81 438 122 q 486 163 486 238 q 486 295 454 322 q 422 348 351 348 z m 251 648 l 208 428 l 355 428 q 434 428 478 462 q 522 497 522 557 q 522 604 492 626 q 462 648 397 648 z"},"K":{"x_min":0,"x_max":656,"ha":656,"o":"m 169 729 l 268 729 l 208 422 l 591 729 l 722 729 l 289 381 l 606 0 l 486 0 l 195 355 l 126 0 l 27 0 z"},"R":{"x_min":0,"x_max":695,"ha":695,"o":"m 252 648 l 202 389 l 329 389 q 404 389 450 430 q 496 472 496 538 q 496 591 465 620 q 434 648 376 648 z m 433 350 q 464 343 485 314 q 506 285 533 199 l 595 0 l 491 0 l 434 187 q 412 259 383 284 q 354 308 295 308 l 186 308 l 126 0 l 27 0 l 169 729 l 391 729 q 492 729 546 683 q 600 638 600 552 q 600 476 554 420 q 508 364 433 350 z"},"T":{"x_min":0,"x_max":611,"ha":611,"o":"m 59 729 l 676 729 l 660 646 l 400 646 l 275 0 l 176 0 l 301 646 l 43 646 z"},"P":{"x_min":0,"x_max":603,"ha":603,"o":"m 169 729 l 397 729 q 497 729 549 683 q 601 636 601 547 q 601 427 524 360 q 447 293 307 293 l 183 293 l 126 0 l 27 0 z m 252 648 l 199 374 l 323 374 q 407 374 452 417 q 497 460 497 540 q 497 591 467 620 q 436 648 381 648 z"},"|":{"x_min":0,"x_max":337,"ha":337,"o":"m 210 764 l 210 -236 l 127 -236 l 127 764 z"},"t":{"x_min":0,"x_max":392,"ha":392,"o":"m 423 547 l 409 477 l 230 477 l 172 180 q 169 164 167 152 q 166 141 166 135 q 166 104 185 89 q 204 75 245 75 l 336 75 l 321 0 l 235 0 q 155 0 115 31 q 76 62 76 126 q 76 137 78 151 q 79 164 82 180 l 140 477 l 64 477 l 78 547 l 153 547 l 183 702 l 273 702 l 243 547 z"},"M":{"x_min":0,"x_max":863,"ha":863,"o":"m 169 729 l 317 729 l 402 238 l 684 729 l 836 729 l 694 0 l 598 0 l 722 639 l 436 140 l 340 140 l 247 641 l 123 0 l 27 0 z"},"g":{"x_min":0,"x_max":635,"ha":635,"o":"m 596 547 l 503 68 q 476 -71 400 -140 q 324 -208 196 -208 q 148 -208 108 -201 q 67 -194 32 -179 l 49 -92 q 82 -113 119 -124 q 156 -134 198 -134 q 284 -134 339 -87 q 394 -41 411 47 l 419 88 q 381 45 332 22 q 282 0 224 0 q 141 0 94 55 q 46 110 46 206 q 46 282 75 354 q 104 427 156 483 q 190 520 237 540 q 283 560 333 560 q 388 560 429 534 q 470 509 490 462 l 506 547 z m 461 346 q 461 413 430 449 q 398 485 341 485 q 305 485 273 471 q 241 457 218 431 q 181 389 160 332 q 139 275 139 215 q 139 147 171 111 q 202 75 261 75 q 347 75 404 153 q 461 230 461 346 z"},"j":{"x_min":0,"x_max":278,"ha":278,"o":"m 145 547 l 235 547 l 127 -10 l 126 -12 q 108 -105 85 -140 q 63 -173 21 -190 q -21 -208 -79 -208 l -113 -208 l -98 -132 l -75 -132 q -22 -132 0 -110 q 22 -88 37 -10 z m 187 760 l 277 760 l 255 646 l 165 646 z"},"i":{"x_min":0,"x_max":278,"ha":278,"o":"m 183 760 l 273 760 l 251 646 l 161 646 z m 142 547 l 232 547 l 125 0 l 35 0 z"},"y":{"x_min":0,"x_max":592,"ha":592,"o":"m 248 -51 q 186 -156 146 -182 q 107 -208 46 -208 l -25 -208 l -10 -133 l 42 -133 q 80 -133 106 -112 q 132 -92 165 -32 l 193 20 l 72 547 l 167 547 l 258 128 l 509 547 l 603 547 z"},"@":{"x_min":0,"x_max":1000,"ha":1000,"o":"m 612 116 q 578 80 539 62 q 500 43 457 43 q 385 43 338 91 q 291 140 291 214 q 291 321 364 402 q 436 482 533 482 q 578 482 614 462 q 649 443 668 408 l 681 472 l 751 472 l 681 112 q 768 125 823 200 q 879 274 879 376 q 879 490 798 562 q 718 634 590 634 q 503 634 422 603 q 341 573 279 517 q 208 452 168 366 q 129 280 129 190 q 129 62 214 -21 q 299 -104 431 -104 q 494 -104 555 -83 q 616 -62 683 -16 l 723 -72 q 657 -122 581 -147 q 504 -173 424 -173 q 267 -173 162 -68 q 58 36 58 196 q 58 306 109 408 q 160 511 252 586 q 320 642 408 672 q 496 703 588 703 q 745 703 847 611 q 950 519 950 380 q 950 236 851 140 q 751 44 597 41 z m 534 413 q 465 413 417 359 q 369 304 369 228 q 369 173 397 143 q 425 112 474 112 q 543 112 590 167 q 637 223 637 304 q 637 354 609 384 q 581 413 534 413 z"},".":{"x_min":0,"x_max":318,"ha":318,"o":"m 82 124 l 185 124 l 161 0 l 58 0 z"},"p":{"x_min":0,"x_max":635,"ha":635,"o":"m 496 337 q 496 409 465 447 q 434 485 375 485 q 335 485 299 464 q 262 444 234 405 q 206 366 189 312 q 173 257 173 203 q 173 135 204 98 q 235 61 293 61 q 335 61 372 81 q 408 101 434 139 q 462 179 479 233 q 496 288 496 337 z m 218 464 q 254 511 303 536 q 352 560 412 560 q 496 560 542 505 q 589 450 589 351 q 589 270 560 197 q 531 123 477 65 q 441 26 396 6 q 350 -14 300 -14 q 242 -14 202 10 q 163 34 143 82 l 87 -208 l -3 -208 l 144 547 l 234 547 z"},"X":{"x_min":0,"x_max":685,"ha":685,"o":"m 137 729 l 237 729 l 362 466 l 588 729 l 703 729 l 403 381 l 584 0 l 485 0 l 338 307 l 72 0 l -43 0 l 298 392 z"},"*":{"x_min":0,"x_max":500,"ha":500,"o":"m 470 609 l 295 514 l 470 419 l 442 371 l 278 470 l 278 286 l 222 286 l 222 470 l 58 371 l 30 419 l 205 514 l 30 609 l 58 657 l 222 558 l 222 742 l 278 742 l 278 558 l 442 657 z"},"Y":{"x_min":0,"x_max":611,"ha":611,"o":"m 63 729 l 169 729 l 305 429 l 565 729 l 676 729 l 345 347 l 278 0 l 179 0 l 246 347 z"},"c":{"x_min":0,"x_max":550,"ha":550,"o":"m 536 526 l 518 437 q 486 460 449 472 q 413 484 374 484 q 331 484 292 469 q 253 454 227 426 q 185 383 162 326 q 139 269 139 208 q 139 134 176 98 q 213 62 288 62 q 325 62 367 73 q 409 84 454 107 l 437 18 q 398 2 357 -6 q 315 -14 272 -14 q 163 -14 104 40 q 46 95 46 196 q 46 281 76 352 q 107 424 167 481 q 208 520 263 540 q 318 560 384 560 q 422 560 459 552 q 497 543 536 526 z"},"!":{"x_min":0,"x_max":401,"ha":401,"o":"m 221 729 l 320 729 l 258 409 l 214 235 l 135 235 l 159 409 z m 104 124 l 203 124 l 179 0 l 79 0 z"},"/":{"x_min":0,"x_max":337,"ha":337,"o":"m 340 729 l 427 729 l 13 -93 l -73 -93 z"},"[":{"x_min":0,"x_max":390,"ha":390,"o":"m 213 760 l 420 760 l 406 690 l 289 690 l 143 -62 l 260 -62 l 247 -132 l 40 -132 z"},"6":{"x_min":0,"x_max":636,"ha":636,"o":"m 459 270 q 459 332 427 368 q 396 404 341 404 q 265 404 214 345 q 162 287 162 201 q 162 137 194 100 q 225 64 281 64 q 357 64 408 124 q 459 184 459 270 z m 592 712 l 575 622 q 547 641 510 650 q 474 660 432 660 q 331 660 270 597 q 208 533 178 398 q 214 439 261 461 q 308 482 363 482 q 452 482 505 430 q 558 379 558 292 q 558 221 532 159 q 506 98 456 52 q 422 20 376 3 q 331 -14 280 -14 q 179 -14 121 50 q 63 114 63 225 q 63 329 90 425 q 116 521 164 591 q 214 665 286 704 q 357 742 444 742 q 482 742 519 735 q 556 727 592 712 z"},"r":{"x_min":0,"x_max":411,"ha":411,"o":"m 446 464 q 432 471 415 475 q 397 479 377 479 q 305 479 251 425 q 198 370 180 279 l 125 0 l 35 0 l 142 547 l 232 547 l 215 462 q 250 509 300 535 q 350 560 406 560 q 420 560 435 558 q 449 557 463 553 z"},"2":{"x_min":0,"x_max":636,"ha":636,"o":"m 461 352 l 146 82 l 494 82 l 477 0 l 4 0 l 20 83 l 349 365 q 415 422 443 466 q 470 509 470 554 q 470 602 437 631 q 404 661 350 661 q 304 661 247 645 q 190 628 126 596 l 144 694 q 205 718 260 730 q 315 742 362 742 q 458 742 516 691 q 574 641 574 558 q 574 502 546 452 q 519 401 461 352 z"},"{":{"x_min":0,"x_max":636,"ha":636,"o":"m 605 760 l 591 690 l 553 690 q 487 690 464 671 q 441 651 426 578 l 401 455 q 385 377 356 342 q 326 306 272 296 q 308 287 327 262 q 347 237 347 200 q 347 188 345 172 q 343 156 340 138 l 317 19 q 314 3 313 -10 q 312 -22 312 -34 q 312 -65 333 -79 q 354 -93 401 -93 l 439 -93 l 425 -163 l 390 -163 q 298 -163 259 -136 q 219 -110 219 -50 q 219 -34 221 -18 q 223 -1 226 17 l 248 132 q 248 133 249 138 q 254 162 254 184 q 254 226 230 244 q 206 262 151 262 l 121 262 l 135 334 l 165 334 q 235 334 266 361 q 297 387 313 461 l 336 580 q 349 640 366 675 q 383 710 410 729 q 433 746 466 753 q 500 760 565 760 z"},"9":{"x_min":0,"x_max":636,"ha":636,"o":"m 44 16 l 62 106 q 90 87 126 78 q 163 68 204 68 q 305 68 367 132 q 429 196 459 331 q 423 290 375 268 q 328 246 273 246 q 184 246 132 298 q 79 349 79 436 q 79 507 105 569 q 131 630 181 676 q 215 708 260 725 q 305 742 356 742 q 457 742 516 678 q 574 614 574 503 q 574 400 547 304 q 520 208 472 137 q 421 63 350 24 q 279 -14 192 -14 q 154 -14 117 -7 q 80 1 44 16 z m 177 459 q 177 397 209 361 q 241 324 296 324 q 372 324 423 382 q 474 440 474 527 q 474 591 442 628 q 411 664 355 664 q 279 664 228 605 q 177 545 177 459 z"}," ":{"x_min":0,"x_max":318,"ha":318,"o":""},"I":{"x_min":0,"x_max":295,"ha":295,"o":"m 169 729 l 268 729 l 126 0 l 27 0 z"},"H":{"x_min":0,"x_max":752,"ha":752,"o":"m 169 729 l 268 729 l 210 430 l 568 430 l 626 729 l 725 729 l 583 0 l 484 0 l 552 347 l 194 347 l 126 0 l 27 0 z"},"4":{"x_min":0,"x_max":636,"ha":636,"o":"m 430 729 l 554 729 l 461 254 l 565 254 l 549 172 l 445 172 l 412 0 l 314 0 l 347 172 l 18 172 l 37 267 z m 439 643 l 114 254 l 363 254 z"},"~":{"x_min":0,"x_max":838,"ha":838,"o":"m 732 399 l 732 312 q 681 273 637 257 q 593 240 546 240 q 492 240 421 269 q 416 271 413 272 q 410 273 402 276 q 327 306 281 306 q 238 306 196 287 q 154 269 106 228 l 106 315 q 157 354 201 370 q 245 387 292 387 q 346 387 417 358 q 422 356 425 355 q 429 354 436 351 q 511 321 557 321 q 599 321 640 339 q 682 358 732 399 z"},"D":{"x_min":0,"x_max":770,"ha":770,"o":"m 169 729 l 381 729 q 550 729 636 657 q 722 586 722 445 q 722 352 689 265 q 657 179 599 120 q 541 60 452 30 q 362 0 240 0 l 27 0 z m 252 648 l 142 81 l 271 81 q 437 81 527 176 q 618 271 618 445 q 618 550 560 599 q 501 648 376 648 z"},"^":{"x_min":0,"x_max":838,"ha":838,"o":"m 467 729 l 732 457 l 634 457 l 419 650 l 204 457 l 106 457 l 371 729 z"},"0":{"x_min":0,"x_max":636,"ha":636,"o":"m 382 742 q 481 742 533 676 q 586 610 586 487 q 586 393 561 301 q 537 208 492 135 q 447 62 385 24 q 324 -14 250 -14 q 154 -14 102 52 q 50 119 50 241 q 50 334 75 427 q 100 520 145 593 q 190 666 250 704 q 311 742 382 742 z m 376 664 q 339 664 305 644 q 272 625 245 586 q 200 521 174 425 q 147 329 147 227 q 147 146 176 105 q 204 64 260 64 q 299 64 332 84 q 365 104 392 142 q 437 206 463 302 q 489 399 489 501 q 489 582 460 623 q 432 664 376 664 z"},"F":{"x_min":0,"x_max":575,"ha":575,"o":"m 169 729 l 587 729 l 571 646 l 251 646 l 209 431 l 498 431 l 482 348 l 193 348 l 125 0 l 27 0 z"},"`":{"x_min":0,"x_max":500,"ha":500,"o":"m 286 800 l 388 617 l 313 617 l 190 800 z"},"k":{"x_min":0,"x_max":579,"ha":579,"o":"m 183 760 l 273 760 l 187 317 l 495 547 l 612 547 l 268 285 l 519 0 l 410 0 l 177 267 l 125 0 l 35 0 z"},"u":{"x_min":0,"x_max":634,"ha":634,"o":"m 67 217 l 131 547 l 221 547 l 157 220 q 152 196 150 179 q 148 162 148 151 q 148 109 173 87 q 199 64 245 64 q 317 64 370 113 q 423 162 439 244 l 499 547 l 589 547 l 483 0 l 393 0 l 411 86 q 373 38 321 12 q 268 -14 209 -14 q 137 -14 97 25 q 57 64 57 135 q 57 149 60 171 q 62 193 67 217 z"},"]":{"x_min":0,"x_max":390,"ha":390,"o":"m 342 760 l 169 -132 l -38 -132 l -25 -62 l 92 -62 l 238 690 l 122 690 l 135 760 z"},"U":{"x_min":0,"x_max":732,"ha":732,"o":"m 155 729 l 254 729 l 168 286 q 163 256 160 237 q 158 218 158 203 q 158 136 196 101 q 233 66 306 66 q 400 66 453 118 q 505 169 528 286 l 614 729 l 713 729 l 625 274 q 596 126 516 56 q 435 -14 295 -14 q 186 -14 122 41 q 58 96 58 190 q 58 207 61 228 q 63 250 68 274 z"},"o":{"x_min":0,"x_max":612,"ha":612,"o":"m 254 -14 q 158 -14 102 45 q 46 104 46 207 q 46 267 65 328 q 84 390 115 432 q 164 498 223 529 q 283 560 358 560 q 451 560 509 502 q 566 444 566 350 q 566 285 547 221 q 528 156 497 114 q 449 48 390 17 q 330 -14 254 -14 z m 139 210 q 139 136 170 99 q 201 62 264 62 q 354 62 414 141 q 473 220 473 341 q 473 412 441 448 q 410 484 348 484 q 297 484 258 460 q 218 437 187 388 q 164 352 152 306 q 139 259 139 210 z"},"N":{"x_min":0,"x_max":748,"ha":748,"o":"m 169 729 l 302 729 l 503 104 l 625 729 l 721 729 l 579 0 l 446 0 l 245 629 l 123 0 l 27 0 z"},"+":{"x_min":0,"x_max":838,"ha":838,"o":"m 460 627 l 460 355 l 732 355 l 732 272 l 460 272 l 460 0 l 378 0 l 378 272 l 106 272 l 106 355 l 378 355 l 378 627 z"},"G":{"x_min":0,"x_max":775,"ha":775,"o":"m 546 109 l 584 300 l 422 300 l 437 381 l 696 381 l 633 60 q 568 24 491 5 q 415 -14 337 -14 q 200 -14 122 62 q 45 138 45 274 q 45 387 92 489 q 139 590 222 658 q 274 701 336 721 q 398 742 474 742 q 542 742 605 725 q 668 708 725 673 l 705 568 q 661 614 602 638 q 543 662 476 662 q 398 662 339 633 q 280 603 234 541 q 194 488 172 417 q 149 345 149 271 q 149 169 201 117 q 253 66 357 66 q 409 66 457 77 q 505 88 546 109 z"},"q":{"x_min":0,"x_max":635,"ha":635,"o":"m 417 82 q 381 35 332 10 q 283 -14 223 -14 q 140 -14 93 42 q 46 98 46 196 q 46 275 75 349 q 104 422 158 481 q 193 519 239 540 q 285 560 335 560 q 396 560 435 536 q 474 512 491 464 l 507 546 l 597 546 l 451 -206 l 361 -206 z m 139 209 q 139 137 169 99 q 200 61 257 61 q 342 61 402 142 q 462 224 462 340 q 462 410 431 448 q 400 485 342 485 q 299 485 263 465 q 227 445 200 407 q 172 367 156 313 q 139 260 139 209 z"},"d":{"x_min":0,"x_max":635,"ha":635,"o":"m 418 82 q 382 35 333 10 q 283 -14 223 -14 q 141 -14 94 42 q 46 98 46 195 q 46 276 75 349 q 104 423 158 481 q 194 520 240 540 q 285 560 335 560 q 388 560 428 535 q 468 509 490 462 l 549 760 l 639 760 l 491 0 l 401 0 z m 139 211 q 139 140 171 101 q 203 61 260 61 q 302 61 338 81 q 374 102 401 141 q 430 182 446 236 q 463 290 463 342 q 463 410 431 448 q 399 486 343 486 q 300 486 264 466 q 227 446 201 408 q 173 368 156 314 q 139 260 139 211 z"},"1":{"x_min":0,"x_max":636,"ha":636,"o":"m 65 83 l 226 83 l 335 644 l 153 609 l 170 694 l 351 729 l 450 729 l 324 83 l 485 83 l 469 0 l 49 0 z"},"5":{"x_min":0,"x_max":636,"ha":636,"o":"m 581 729 l 566 647 l 264 647 l 229 467 q 251 474 275 478 q 298 481 322 481 q 423 481 481 427 q 540 373 540 280 q 540 215 510 155 q 480 96 425 51 q 386 20 329 3 q 273 -14 206 -14 q 162 -14 116 -6 q 70 1 20 17 l 38 109 q 83 87 128 76 q 173 65 219 65 q 314 65 377 122 q 439 179 439 265 q 439 329 398 364 q 357 399 284 399 q 246 399 204 390 q 162 381 118 363 l 189 729 z"}}}
